<svg width="24" height="25" viewBox="0 0 24 25" fill="none" xmlns="http://www.w3.org/2000/svg">
<path d="M2.6578 16.1447L2.65781 16.1458L2.65781 20.2778C2.65781 20.334 2.66846 20.3895 2.68889 20.4409C2.70933 20.4923 2.73899 20.5382 2.77568 20.5765C2.81234 20.6146 2.85524 20.6443 2.90162 20.6643C2.94797 20.6843 2.99723 20.6944 3.04669 20.6944C3.09615 20.6944 3.14542 20.6843 3.19177 20.6643C3.23815 20.6443 3.28105 20.6146 3.31772 20.5765C3.35439 20.5382 3.38406 20.4923 3.40449 20.4409C3.42493 20.3895 3.43558 20.334 3.43558 20.2778V16.1487C3.42927 15.8277 3.51267 15.5111 3.67668 15.2371L3.91501 15.3798L3.67669 15.2371C3.84129 14.9622 4.08043 14.7415 4.36614 14.6039L4.36629 14.6038C6.43054 13.611 8.67918 13.1013 10.9538 13.1111C10.954 13.1111 10.9543 13.1111 10.9546 13.1111L10.9534 13.3889C12.1092 13.3874 13.2613 13.5186 14.3889 13.7801L2.6578 16.1447ZM2.6578 16.1447C2.65591 15.6609 2.78608 15.1871 3.03215 14.7788C3.27771 14.3713 3.62816 14.0463 4.04154 13.8401C7.28247 12.3014 10.9088 11.8866 14.3889 12.6523V13.495L2.6578 16.1447ZM10.9534 11.3125C10.0879 11.3125 9.24089 11.0452 8.51938 10.543C7.79773 10.0408 7.23359 9.32561 6.90004 8.48679C6.56646 7.64789 6.47902 6.72418 6.64921 5.83291C6.8194 4.94168 7.23921 4.12453 7.85391 3.48421C8.4685 2.84402 9.25013 2.40941 10.0993 2.23346C10.9484 2.05753 11.8286 2.14771 12.6292 2.49313C13.4299 2.83862 14.1161 3.4245 14.5997 4.17846C15.0834 4.93252 15.3422 5.8202 15.3422 6.72917C15.3422 7.94832 14.8772 9.11537 14.0528 9.97412C13.2288 10.8325 12.1136 11.3125 10.9534 11.3125ZM10.9534 3.03472C10.2366 3.03472 9.53686 3.25619 8.94277 3.66968C8.34884 4.08307 7.88759 4.66942 7.61564 5.35332C7.34373 6.03714 7.27274 6.78898 7.41123 7.51422C7.54973 8.2395 7.89183 8.9072 8.39595 9.43232C8.90019 9.95757 9.54402 10.3166 10.2467 10.4622C10.9495 10.6078 11.6778 10.533 12.339 10.2477C13.0001 9.96244 13.5633 9.48021 13.9587 8.86376C14.3541 8.24742 14.5645 7.52394 14.5645 6.78472C14.5645 6.2938 14.4717 5.80744 14.2911 5.35332C14.1105 4.89918 13.8455 4.48582 13.5108 4.13712C13.176 3.78839 12.7779 3.51114 12.339 3.32176C11.9001 3.13236 11.4292 3.03472 10.9534 3.03472ZM15.0378 19.3125H18.5756V19.7292H15.0378V19.3125Z" fill="white" stroke="white" stroke-width="0.555556"/>
<path d="M21.7245 16.2986V16.0208H21.4467H18.9445V15.1875H22.1134C22.2127 15.1875 22.3105 15.2285 22.3844 15.3055L22.5777 15.1199L22.3844 15.3055C22.4586 15.3828 22.5022 15.4901 22.5022 15.6042V22.8056C22.5022 22.9196 22.4586 23.0269 22.3844 23.1042C22.3105 23.1812 22.2128 23.2222 22.1134 23.2222H11.3334C11.234 23.2222 11.1362 23.1812 11.0623 23.1042C10.9881 23.0269 10.9445 22.9196 10.9445 22.8056V15.6042C10.9445 15.4901 10.9881 15.3828 11.0623 15.3055C11.1362 15.2285 11.234 15.1875 11.3334 15.1875H16.2H16.4778V14.9097V13.8889C16.4778 13.7748 16.5214 13.6676 16.5957 13.5902C16.6696 13.5132 16.7673 13.4722 16.8667 13.4722C16.9661 13.4722 17.0638 13.5132 17.1377 13.5902C17.212 13.6676 17.2556 13.7748 17.2556 13.8889V16.5903C17.2556 16.7044 17.212 16.8116 17.1377 16.889C17.0638 16.9659 16.9661 17.0069 16.8667 17.0069C16.7673 17.0069 16.6696 16.9659 16.5957 16.889C16.5214 16.8116 16.4778 16.7044 16.4778 16.5903V16.2986V16.0208H16.2H12H11.7222V16.2986V22.1111V22.3889H12H21.4467H21.7245V22.1111V16.2986Z" fill="white" stroke="white" stroke-width="0.555556"/>
</svg>
