<svg width="25" height="25" viewBox="0 0 25 25" fill="none" xmlns="http://www.w3.org/2000/svg">
<path d="M12.5005 3.90625C12.0776 3.90625 11.6909 4.26562 11.7192 4.6875L12.1099 15.2344C12.1099 15.338 12.151 15.4373 12.2243 15.5106C12.2975 15.5838 12.3969 15.625 12.5005 15.625C12.6041 15.625 12.7034 15.5838 12.7767 15.5106C12.85 15.4373 12.8911 15.338 12.8911 15.2344L13.2817 4.6875C13.3101 4.26562 12.9233 3.90625 12.5005 3.90625Z" stroke="black" stroke-width="1.25" stroke-linecap="round" stroke-linejoin="round"/>
<path d="M12.5 21.0938C12.9315 21.0938 13.2812 20.744 13.2812 20.3125C13.2812 19.881 12.9315 19.5312 12.5 19.5312C12.0685 19.5312 11.7188 19.881 11.7188 20.3125C11.7188 20.744 12.0685 21.0938 12.5 21.0938Z" stroke="black" stroke-width="1.25" stroke-linecap="round" stroke-linejoin="round"/>
</svg>
