<svg width="32" height="32" viewBox="0 0 32 32" fill="none" xmlns="http://www.w3.org/2000/svg">
<path d="M21.4617 4.63675C20.1369 3.31196 18.4146 2.64957 16.8249 2.64957C15.2352 2.64957 13.3805 3.31196 12.1882 4.63675L4.50439 12.0555C1.85482 14.7051 1.85482 18.812 4.50439 21.4615C7.15396 24.1111 11.2608 24.1111 13.9104 21.4615L21.4617 13.9102C23.9788 11.3932 23.9788 7.15384 21.4617 4.63675ZM19.607 12.0555L15.8976 15.7649L11.1283 11.1282L5.29926 16.9573C5.29926 15.8974 5.56422 14.7051 6.49157 13.9102L14.0429 6.35897C14.7052 5.69657 15.7651 5.29914 16.6924 5.29914C17.6198 5.29914 18.6796 5.69657 19.4745 6.35897C21.0642 8.08119 21.0642 10.4658 19.607 12.0555ZM25.9659 9.40598C25.9659 10.4658 25.701 11.3932 25.436 12.453C26.7608 14.0427 26.7608 16.4273 25.3035 17.8846L21.5941 21.594L19.607 19.6068L17.7523 21.4615L15.8976 23.3162C14.1753 25.0385 11.7907 25.9658 9.53858 25.9658C9.80354 26.3632 10.0685 26.7607 10.4659 27.1581C13.1155 29.8077 17.2223 29.8077 19.8719 27.1581L27.4232 19.6068C30.0728 16.9573 30.0728 12.8504 27.4232 10.2008C26.7608 9.93589 26.3634 9.67093 25.9659 9.40598Z" fill="#66CCFF"/>
</svg>
