<svg width="32" height="32" viewBox="0 0 32 32" fill="none" xmlns="http://www.w3.org/2000/svg">
<g clip-path="url(#clip0_4_8)">
<rect width="32" height="32" rx="5" fill="#F9F9F9"/>
<path d="M16 5.33332C16.7363 5.33332 17.3333 4.73637 17.3333 3.99999C17.3333 3.26361 16.7363 2.66666 16 2.66666C15.2636 2.66666 14.6666 3.26361 14.6666 3.99999C14.6666 4.73637 15.2636 5.33332 16 5.33332Z" stroke="black" stroke-width="1.7"/>
<path d="M7.99998 25.3333V13.3333C7.99998 11.2116 8.84283 9.17675 10.3431 7.67646C11.8434 6.17617 13.8782 5.33331 16 5.33331C18.1217 5.33331 20.1565 6.17617 21.6568 7.67646C23.1571 9.17675 24 11.2116 24 13.3333V25.3333M7.99998 25.3333H24M7.99998 25.3333H5.33331M24 25.3333H26.6666M14.6666 29.3333H17.3333" stroke="black" stroke-width="1.7" stroke-linecap="round" stroke-linejoin="round"/>
</g>
<defs>
<clipPath id="clip0_4_8">
<rect width="32" height="32" rx="5" fill="white"/>
</clipPath>
</defs>
</svg>
