<svg width="24" height="25" viewBox="0 0 24 25" fill="none" xmlns="http://www.w3.org/2000/svg">
<path d="M15 7.29167H9M15 11.4583H9M15 15.625H11M5 3.125H19V21.875L17.968 20.9542C17.6055 20.6306 17.1439 20.4527 16.6665 20.4527C16.1891 20.4527 15.7275 20.6306 15.365 20.9542L14.333 21.875L13.302 20.9542C12.9395 20.6303 12.4776 20.4522 12 20.4522C11.5224 20.4522 11.0605 20.6303 10.698 20.9542L9.667 21.875L8.635 20.9542C8.27253 20.6306 7.81088 20.4527 7.3335 20.4527C6.85611 20.4527 6.39447 20.6306 6.032 20.9542L5 21.875V3.125Z" stroke="white" stroke-width="1.5" stroke-linecap="round" stroke-linejoin="round"/>
</svg>
