<svg width="24" height="25" viewBox="0 0 24 25" fill="none" xmlns="http://www.w3.org/2000/svg">
<path d="M12.9798 9.89238C13.0443 9.95957 13.0833 10.0542 13.0833 10.1562C13.0833 10.2583 13.0443 10.3529 12.9798 10.4201C12.9158 10.4867 12.8328 10.5208 12.75 10.5208H6.75C6.66721 10.5208 6.58419 10.4867 6.52025 10.4201C6.45575 10.3529 6.41667 10.2583 6.41667 10.1562C6.41667 10.0542 6.45575 9.95957 6.52025 9.89238C6.58419 9.82577 6.66721 9.79167 6.75 9.79167H12.75C12.8328 9.79167 12.9158 9.82577 12.9798 9.89238ZM11.9798 13.0174C12.0443 13.0846 12.0833 13.1792 12.0833 13.2812C12.0833 13.3833 12.0443 13.4779 11.9798 13.5451C11.9158 13.6117 11.8328 13.6458 11.75 13.6458H6.75C6.66721 13.6458 6.58419 13.6117 6.52025 13.5451C6.45575 13.4779 6.41667 13.3833 6.41667 13.2812C6.41667 13.1792 6.45575 13.0846 6.52025 13.0174C6.58419 12.9508 6.66721 12.9167 6.75 12.9167H11.75C11.8328 12.9167 11.9158 12.9508 11.9798 13.0174ZM12.75 16.0417C12.8328 16.0417 12.9158 16.0758 12.9798 16.1424C13.0443 16.2096 13.0833 16.3042 13.0833 16.4062C13.0833 16.5083 13.0443 16.6029 12.9798 16.6701C12.9158 16.7367 12.8328 16.7708 12.75 16.7708H6.75C6.66721 16.7708 6.58419 16.7367 6.52025 16.6701C6.45575 16.6029 6.41667 16.5083 6.41667 16.4062C6.41667 16.3042 6.45575 16.2096 6.52025 16.1424C6.58419 16.0758 6.66721 16.0417 6.75 16.0417H12.75Z" fill="black" stroke="white" stroke-width="0.833333"/>
<path d="M7.814 3.79154L8.06214 4.12625C8.62983 3.7054 9.30717 3.48063 10 3.48063C10.6927 3.48063 11.37 3.70533 11.9376 4.12606C12.3905 4.46302 12.9351 4.64597 13.4957 4.64686C14.0564 4.64775 14.6017 4.46644 15.0557 4.13073L15.0567 4.12999L15.2317 3.9998C15.2317 3.99979 15.2317 3.99979 15.2317 3.99978C16.0887 3.36228 17.3333 3.97617 17.3333 5.14883V13.2811V13.6978H17.75H21C21.0828 13.6978 21.1658 13.7319 21.2298 13.7985C21.2943 13.8657 21.3333 13.9603 21.3333 14.0624V19.7915C21.3333 20.4461 21.0835 21.0707 20.644 21.5286C20.2049 21.9859 19.6132 22.2395 19 22.2395H6C5.12156 22.2395 4.27548 21.8761 3.64893 21.2235C3.02182 20.5702 2.66667 19.6807 2.66667 18.7499V5.14883C2.66667 3.97536 3.9111 3.36214 4.76828 3.99978C4.76828 3.99979 4.76829 3.99979 4.7683 3.9998L4.94327 4.12999L4.94327 4.12999L4.94427 4.13073C5.39828 4.46644 5.94359 4.64775 6.5043 4.64686C7.06501 4.64597 7.60977 4.46293 8.06276 4.12579L7.814 3.79154ZM7.814 3.79154C7.43162 4.07611 6.97359 4.22945 6.50364 4.23019C6.03369 4.23094 5.57521 4.07906 5.192 3.7957H14.808C14.4248 4.07906 13.9663 4.23094 13.4964 4.23019C13.0264 4.22945 12.5684 4.07611 12.186 3.79154C11.5476 3.31827 10.7835 3.06396 10 3.06396C9.21645 3.06396 8.45238 3.31827 7.814 3.79154ZM8.43827 4.72735L8.43716 4.72817C7.87113 5.14963 7.19509 5.3752 6.5033 5.37603C5.81166 5.37685 5.13527 5.15299 4.56841 4.73306C4.56829 4.73297 4.56818 4.73289 4.56807 4.7328L4.39372 4.60308L4.39321 4.6027C4.29356 4.52879 4.1746 4.48369 4.0492 4.47427C3.92376 4.46485 3.79905 4.49168 3.68907 4.55055C3.57927 4.60933 3.48943 4.69716 3.42756 4.80242C3.36577 4.90757 3.33364 5.02699 3.33333 5.14778V5.14883V18.7499C3.33333 19.4766 3.61032 20.1768 4.10843 20.6957C4.6071 21.2151 5.28714 21.5103 6 21.5103H16.55H17.2191L16.9239 20.9098C16.7597 20.5757 16.6667 20.1958 16.6667 19.7915L16.6667 5.14883L16.6667 5.14778C16.6664 5.027 16.6342 4.90757 16.5724 4.80242C16.5106 4.69716 16.4207 4.60933 16.3109 4.55055C16.201 4.49168 16.0762 4.46485 15.9508 4.47427C15.8254 4.48369 15.7064 4.52879 15.6068 4.6027L15.6063 4.60308L15.4319 4.7328C15.4319 4.73286 15.4318 4.73292 15.4317 4.73297C14.8648 5.15296 14.1884 5.37685 13.4967 5.37603C12.8049 5.3752 12.1289 5.14963 11.5628 4.72817L11.5617 4.72735C11.1072 4.39122 10.5614 4.20927 10 4.20927C9.43861 4.20927 8.89283 4.39122 8.43827 4.72735ZM17.75 14.427H17.3333V14.8436V19.7915C17.3333 20.242 17.505 20.6773 17.8155 21.0008C18.1267 21.3249 18.5524 21.5103 19 21.5103C19.4476 21.5103 19.8733 21.3249 20.1845 21.0008C20.495 20.6773 20.6667 20.242 20.6667 19.7915V14.8436V14.427H20.25H17.75Z" fill="black" stroke="white" stroke-width="0.833333"/>
</svg>
