<svg width="34" height="34" viewBox="0 0 34 34" fill="none" xmlns="http://www.w3.org/2000/svg">
<path d="M21.9583 19.8333H20.8392L20.4425 19.4508C21.3278 18.4223 21.9749 17.2108 22.3374 15.9029C22.6998 14.5951 22.7687 13.2234 22.5392 11.8858C21.8733 7.9475 18.5867 4.80249 14.62 4.32083C13.2255 4.1444 11.809 4.28934 10.4791 4.74454C9.1492 5.19974 7.94104 5.95314 6.94709 6.94709C5.95314 7.94104 5.19974 9.1492 4.74454 10.4791C4.28934 11.809 4.1444 13.2254 4.32083 14.62C4.80249 18.5867 7.9475 21.8733 11.8858 22.5392C13.2234 22.7687 14.5951 22.6998 15.9029 22.3374C17.2108 21.9749 18.4223 21.3278 19.4508 20.4425L19.8333 20.8392V21.9583L25.8542 27.9792C26.435 28.56 27.3842 28.56 27.965 27.9792C28.5458 27.3983 28.5458 26.4492 27.965 25.8683L21.9583 19.8333ZM13.4583 19.8333C9.93083 19.8333 7.08333 16.9858 7.08333 13.4583C7.08333 9.93083 9.93083 7.08333 13.4583 7.08333C16.9858 7.08333 19.8333 9.93083 19.8333 13.4583C19.8333 16.9858 16.9858 19.8333 13.4583 19.8333Z" fill="#2007B4"/>
</svg>
